<svg width="52" height="70" viewBox="0 0 52 70" fill="none" xmlns="http://www.w3.org/2000/svg">
  <!-- Pin Shape -->
  <path d="M26 0C12 0 1 11 1 25C1 43 26 70 26 70C26 70 51 43 51 25C51 11 40 0 26 0Z" fill="#C7A4F7"></path>

  <!-- Cat Head -->
  <circle cx="26" cy="25" r="16" fill="white" stroke="#333" stroke-width="2"></circle>

  <!-- Ears -->
  <path d="M16 16 L12 8 L20 12 Z" fill="#F5CBA7" stroke="#333" stroke-width="1.5"></path>
  <path d="M36 16 L40 8 L32 12 Z" fill="#D98880" stroke="#333" stroke-width="1.5"></path>

  <!-- Cat Spots (삼색 포인트) -->
  <circle cx="20" cy="25" r="6" fill="#F2D7D5"></circle>
  <circle cx="32" cy="25" r="6" fill="#FAD7A0"></circle>

  <!-- Eyes -->
  <circle cx="21" cy="24" r="2.3" fill="#333"></circle>
  <circle cx="31" cy="24" r="2.3" fill="#333"></circle>

  <!-- Nose -->
  <circle cx="26" cy="28" r="1.7" fill="#E67E22"></circle>

  <!-- Mouth -->
  <path d="M26 29 Q24 32 22 30" stroke="#333" stroke-width="1.5" fill="none"></path>
  <path d="M26 29 Q28 32 30 30" stroke="#333" stroke-width="1.5" fill="none"></path>
</svg>
