<!-- frontend/public/dog-pin.svg -->
<svg width="54" height="72" viewBox="0 0 54 72" fill="none" xmlns="http://www.w3.org/2000/svg">
  <!-- 핀 전체 -->
  <defs>
    <filter id="shadow" x="-4" y="-2" width="62" height="80" filterUnits="userSpaceOnUse">
      <feDropShadow dx="0" dy="2" stdDeviation="3" flood-color="#000000" flood-opacity="0.25"/>
    </filter>
  </defs>

  <g filter="url(#shadow)">
    <!-- 핀 모양 배경 -->
    <path
      d="M27 4C15 4 6 13 6 24.5C6 36 15.5 47 23.5 57.5C25 59.5 26.1 61 27 61C27.9 61 29 59.5 30.5 57.5C38.5 47 48 36 48 24.5C48 13 39 4 27 4Z"
      fill="#FFFFFF"
      stroke="#E0E4EF"
      stroke-width="2"
    />
  </g>

  <!-- 강아지 얼굴 배경 -->
  <circle cx="27" cy="25" r="13" fill="#FFE9CC" />

  <!-- 귀 -->
  <path d="M16 18C16 14 18 11 21 11L22.5 11.5C23.5 11.8 24 12.6 24 13.7V18.5C24 19.9 22.9 21 21.5 21H19C17.3 21 16 19.7 16 18Z" fill="#F0C69A"/>
  <path d="M38 18C38 14 36 11 33 11L31.5 11.5C30.5 11.8 30 12.6 30 13.7V18.5C30 19.9 31.1 21 32.5 21H35C36.7 21 38 19.7 38 18Z" fill="#F0C69A"/>

  <!-- 눈 -->
  <circle cx="22" cy="25" r="1.7" fill="#333333"/>
  <circle cx="32" cy="25" r="1.7" fill="#333333"/>

  <!-- 코 -->
  <path d="M26 27C26 26.2 26.7 25.5 27.5 25.5C28.3 25.5 29 26.2 29 27C29 27.8 28.3 28.5 27.5 28.5C26.7 28.5 26 27.8 26 27Z" fill="#333333"/>

  <!-- 입 -->
  <path
    d="M27.5 28.5V30
       M27.5 30C26.7 30 25.9 30.3 25.3 30.9
       M27.5 30C28.3 30 29.1 30.3 29.7 30.9"
    stroke="#333333"
    stroke-width="1.2"
    stroke-linecap="round"
  />

  <!-- 볼 터치 -->
  <circle cx="20" cy="28" r="1.3" fill="#FFB4B4" opacity="0.8"/>
  <circle cx="35" cy="28" r="1.3" fill="#FFB4B4" opacity="0.8"/>
</svg>
