<svg width="52" height="70" viewBox="0 0 52 70" fill="none" xmlns="http://www.w3.org/2000/svg">
  <path d="M26 0C12 0 1 11 1 25C1 43 26 70 26 70C26 70 51 43 51 25C51 11 40 0 26 0Z" fill="#FFFFFF" stroke="#111827" stroke-width="2" stroke-linejoin="round"/>

  <circle cx="18" cy="17" r="4" fill="#111827" />
  <circle cx="34" cy="17" r="4" fill="#111827" />

  <circle cx="26" cy="27" r="12" fill="#FFFFFF" stroke="#111827" stroke-width="2"/>

  <ellipse cx="21" cy="26" rx="4.3" ry="5" fill="#111827" />
  <ellipse cx="31" cy="26" rx="4.3" ry="5" fill="#111827" />

  <circle cx="21" cy="26" r="1.5" fill="#FFFFFF" />
  <circle cx="31" cy="26" r="1.5" fill="#FFFFFF" />

  <path d="M24.8 30.5C25.4 29.9 26.6 29.9 27.2 30.5C27.8 31.1 27.6 32 26.9 32.4C26.4 32.7 25.6 32.7 25.1 32.4C24.4 32 24.2 31.1 24.8 30.5Z" fill="#111827"/>

  <path d="M23.5 33.5C24.3 34.3 25.1 34.7 26 34.7C26.9 34.7 27.7 34.3 28.5 33.5" stroke="#111827" stroke-width="1.6" stroke-linecap="round"/>

  <ellipse cx="18.5" cy="29.5" rx="2.1" ry="1.4" fill="#F9A8D4" opacity="0.9" />
  <ellipse cx="33.5" cy="29.5" rx="2.1" ry="1.4" fill="#F9A8D4" opacity="0.9" />
</svg>