<svg width="52" height="70" viewBox="0 0 52 70" fill="none" xmlns="http://www.w3.org/2000/svg">
  <!-- Pin Shape -->
  <path
    d="M26 0C12 0 1 11 1 25C1 43 26 70 26 70C26 70 51 43 51 25C51 11 40 0 26 0Z"
    fill="#5727FF"
  />

  <!-- Quokka Head -->
  <circle
    cx="26"
    cy="25"
    r="16"
    fill="#F6D7A7"
    stroke="#3A2A1A"
    stroke-width="2"
  />

  <!-- Ears -->
  <path
    d="M17 14 C15 11 14 9 14 8 C14 6.5 15.5 5.5 17 6 C18.5 6.5 20.5 8.5 21.5 10.5 L17 14Z"
    fill="#D89B5A"
    stroke="#3A2A1A"
    stroke-width="1.5"
  />
  <path
    d="M35 14 C37 11 38 9 38 8 C38 6.5 36.5 5.5 35 6 C33.5 6.5 31.5 8.5 30.5 10.5 L35 14Z"
    fill="#D89B5A"
    stroke="#3A2A1A"
    stroke-width="1.5"
  />

  <!-- Inner Ear -->
  <path
    d="M18.3 12.8 C16.9 11.2 16.4 10.5 16.4 9.8 C16.4 9 17.1 8.6 17.8 8.9 C18.6 9.2 19.7 10.4 20.4 11.4 L18.3 12.8Z"
    fill="#FCE3C5"
  />
  <path
    d="M33.7 12.8 C35.1 11.2 35.6 10.5 35.6 9.8 C35.6 9 34.9 8.6 34.2 8.9 C33.4 9.2 32.3 10.4 31.6 11.4 L33.7 12.8Z"
    fill="#FCE3C5"
  />

  <!-- Cheeks -->
  <circle cx="19" cy="27.5" r="3" fill="#F6B2B2" opacity="0.9" />
  <circle cx="33" cy="27.5" r="3" fill="#F6B2B2" opacity="0.9" />

  <!-- Eyes -->
  <circle cx="21" cy="23" r="2.1" fill="#3A2A1A" />
  <circle cx="31" cy="23" r="2.1" fill="#3A2A1A" />
  <!-- Eye sparkle -->
  <circle cx="20.4" cy="22.4" r="0.6" fill="#FFFFFF" />
  <circle cx="30.4" cy="22.4" r="0.6" fill="#FFFFFF" />

  <!-- Nose (약간 하트 모양) -->
  <path
    d="M24.5 26.4 C24.5 25.5 25.2 24.9 26 24.9 C26.8 24.9 27.5 25.5 27.5 26.4
       C27.5 27.3 26.8 28.1 26 28.1 C25.2 28.1 24.5 27.3 24.5 26.4Z"
    fill="#3A2A1A"
  />

  <!-- Mouth -->
  <path
    d="M24.3 29 C24.6 30.1 25.3 30.8 26 30.8 C26.7 30.8 27.4 30.1 27.7 29"
    stroke="#3A2A1A"
    stroke-width="1.4"
    stroke-linecap="round"
    fill="none"
  />

  <!-- Little teeth (귀여움 포인트) -->
  <rect x="24.8" y="29.9" width="1.2" height="1.5" fill="#FFFFFF" rx="0.3" />
  <rect x="26.2" y="29.9" width="1.2" height="1.5" fill="#FFFFFF" rx="0.3" />
</svg>
