<svg width="52" height="70" viewBox="0 0 52 70" fill="none" xmlns="http://www.w3.org/2000/svg">
  <!-- Pin Shape -->
  <path d="M26 0C12 0 1 11 1 25C1 43 26 70 26 70C26 70 51 43 51 25C51 11 40 0 26 0Z" fill="#F3E5AB"/>

  <!-- Fluffy Wool -->
  <circle cx="26" cy="26" r="18" fill="white" stroke="#C9C1A9" stroke-width="2"/>
  <circle cx="16" cy="20" r="6" fill="white"/>
  <circle cx="36" cy="20" r="6" fill="white"/>

  <!-- Ears -->
  <path d="M14 30 C8 26, 8 20, 14 18 C18 20, 18 28, 14 30Z" fill="#F7D9C4" stroke="#C9A99A" stroke-width="1.3"/>
  <path d="M38 30 C44 26, 44 20, 38 18 C34 20, 34 28, 38 30Z" fill="#F7D9C4" stroke="#C9A99A" stroke-width="1.3"/>

  <!-- Face -->
  <circle cx="26" cy="30" r="10" fill="#F8EDE3"/>

  <!-- Eyes -->
  <circle cx="22" cy="28" r="2.1" fill="#444"/>
  <circle cx="30" cy="28" r="2.1" fill="#444"/>

  <!-- Blush -->
  <circle cx="20" cy="33" r="2.4" fill="#F2B6C6" opacity="0.8"/>
  <circle cx="32" cy="33" r="2.4" fill="#F2B6C6" opacity="0.8"/>

  <!-- Nose -->
  <path d="M25 30 Q26 31.3 27 30 Q26 29 25 30Z" fill="#D18B75"/>

  <!-- Cute Smile -->
  <path d="M23 34 Q26 36 29 34" stroke="#664B38" stroke-width="1.4" stroke-linecap="round" fill="none"/>

</svg>
